<svg xmlns="http://www.w3.org/2000/svg" viewBox="0 0 1600 1000" role="img" aria-label="低饱和游戏界面作品集视觉">
  <defs>
    <filter id="softShadow" x="-20%" y="-20%" width="140%" height="140%">
      <feDropShadow dx="0" dy="24" stdDeviation="28" flood-color="#252521" flood-opacity="0.16"/>
    </filter>
    <pattern id="paper" width="18" height="18" patternUnits="userSpaceOnUse">
      <rect width="18" height="18" fill="#efe7da"/>
      <path d="M0 8.5H18M9 0V18" stroke="#d7cdbd" stroke-width=".5" opacity=".35"/>
    </pattern>
  </defs>
  <rect width="1600" height="1000" fill="url(#paper)"/>
  <rect x="918" y="0" width="682" height="1000" fill="#d9d0bf" opacity=".55"/>
  <g filter="url(#softShadow)" opacity=".94">
    <rect x="820" y="190" width="520" height="360" rx="18" fill="#fff8ec" stroke="#332f2b" stroke-opacity=".18"/>
    <rect x="858" y="230" width="210" height="34" rx="17" fill="#697467" opacity=".52"/>
    <rect x="858" y="292" width="430" height="16" rx="8" fill="#34383a" opacity=".18"/>
    <rect x="858" y="326" width="380" height="16" rx="8" fill="#34383a" opacity=".12"/>
    <rect x="858" y="384" width="124" height="96" rx="14" fill="#d9d0bf"/>
    <rect x="1014" y="384" width="124" height="96" rx="14" fill="#a98574" opacity=".54"/>
    <rect x="1170" y="384" width="124" height="96" rx="14" fill="#697467" opacity=".46"/>
  </g>
  <g filter="url(#softShadow)" opacity=".9">
    <rect x="1000" y="610" width="410" height="210" rx="18" fill="#f7efe2" stroke="#332f2b" stroke-opacity=".16"/>
    <circle cx="1060" cy="675" r="34" fill="#697467" opacity=".54"/>
    <rect x="1120" y="654" width="216" height="14" rx="7" fill="#34383a" opacity=".2"/>
    <rect x="1120" y="688" width="172" height="14" rx="7" fill="#34383a" opacity=".13"/>
    <rect x="1050" y="740" width="280" height="30" rx="15" fill="#9c6f5c" opacity=".32"/>
  </g>
  <g filter="url(#softShadow)" opacity=".88">
    <rect x="660" y="556" width="280" height="230" rx="18" fill="#efe4d5" stroke="#332f2b" stroke-opacity=".12"/>
    <path d="M710 704C754 626 826 636 884 594" fill="none" stroke="#697467" stroke-width="12" stroke-linecap="round" opacity=".58"/>
    <rect x="708" y="620" width="98" height="18" rx="9" fill="#34383a" opacity=".14"/>
    <rect x="708" y="656" width="148" height="18" rx="9" fill="#34383a" opacity=".1"/>
  </g>
  <path d="M1290 132L1454 214L1390 360L1218 278Z" fill="#9c6f5c" opacity=".22"/>
  <path d="M1168 104L1240 84L1272 212L1194 228Z" fill="#697467" opacity=".22"/>
  <path d="M598 172L740 136L772 258L626 300Z" fill="#fff8ec" opacity=".72"/>
  <circle cx="1378" cy="502" r="58" fill="#697467" opacity=".18"/>
  <circle cx="734" cy="394" r="34" fill="#9c6f5c" opacity=".22"/>
</svg>
